<svg width="16" height="29" viewBox="0 0 16 29" fill="none" xmlns="http://www.w3.org/2000/svg">
<path d="M15.5656 13.3684L3.4459 0.463289C3.16559 0.164568 2.7914 0 2.3924 0C1.99341 0 1.61922 0.164568 1.33891 0.463289L0.446376 1.41344C-0.1344 2.03258 -0.1344 3.03885 0.446376 3.65704L10.6236 14.494L0.435083 25.343C0.15477 25.6417 7.33452e-08 26.0399 7.45412e-08 26.4645C7.57385e-08 26.8896 0.15477 27.2878 0.435083 27.5868L1.32761 28.5367C1.60815 28.8354 1.98212 29 2.38111 29C2.78011 29 3.1543 28.8354 3.43461 28.5367L15.5656 15.6198C15.8466 15.3201 16.0009 14.92 16 14.4947C16.0009 14.0677 15.8466 13.6678 15.5656 13.3684Z" fill="white" fill-opacity="0.8"/>
</svg>
