<svg width="30" height="17" viewBox="0 0 30 17" fill="none" xmlns="http://www.w3.org/2000/svg">
<path d="M13.8684 0.934422L0.963289 13.0541C0.664568 13.3344 0.5 13.7086 0.5 14.1076C0.5 14.5066 0.664568 14.8808 0.963289 15.1611L1.91344 16.0536C2.53258 16.6344 3.53885 16.6344 4.15704 16.0536L14.994 5.87644L25.843 16.0649C26.1417 16.3452 26.5399 16.5 26.9645 16.5C27.3896 16.5 27.7878 16.3452 28.0868 16.0649L29.0367 15.1724C29.3354 14.8919 29.5 14.5179 29.5 14.1189C29.5 13.7199 29.3354 13.3457 29.0367 13.0654L16.1198 0.934422C15.8201 0.653444 15.42 0.499117 14.9947 0.500003C14.5677 0.499117 14.1678 0.653444 13.8684 0.934422Z" fill="white" fill-opacity="0.8"/>
</svg>
