<svg width="30" height="17" viewBox="0 0 30 17" fill="none" xmlns="http://www.w3.org/2000/svg">
<path d="M16.1316 16.0656L29.0367 3.9459C29.3354 3.66559 29.5 3.2914 29.5 2.8924C29.5 2.49341 29.3354 2.11922 29.0367 1.83891L28.0866 0.946376C27.4674 0.3656 26.4612 0.3656 25.843 0.946376L15.006 11.1236L4.15703 0.935082C3.85831 0.654769 3.4601 0.499999 3.03547 0.499999C2.61038 0.499999 2.21216 0.654769 1.91321 0.935082L0.963287 1.82761C0.664566 2.10815 0.499999 2.48212 0.499999 2.88111C0.499999 3.2801 0.664566 3.6543 0.963287 3.93461L13.8802 16.0656C14.1799 16.3466 14.58 16.5009 15.0053 16.5C15.4323 16.5009 15.8322 16.3466 16.1316 16.0656Z" fill="white" fill-opacity="0.8"/>
</svg>
