<svg width="28" height="25" viewBox="0 0 28 25" fill="none" xmlns="http://www.w3.org/2000/svg">
<path d="M21.1353 13.8981C20.4516 13.8981 19.882 14.4463 19.882 15.1042V23.7939C19.882 24.4518 20.4516 25.0001 21.1353 25.0001C21.8189 25.0001 22.3886 24.4518 22.3886 23.7939V15.1316C22.4171 14.4463 21.8474 13.8981 21.1353 13.8981Z" fill="#04CDA9"/>
<path d="M27.9145 14.5011C27.9145 12.9112 27.6297 11.3487 27.06 9.89582C26.5758 8.60745 25.8637 7.3739 24.9807 6.27741C25.0946 6.0307 25.1801 5.75657 25.1801 5.50986C25.1801 5.04385 25.0092 4.60526 24.6389 4.2489C23.1862 2.85087 21.5341 1.80921 19.7396 1.09649C17.8881 0.356359 15.9227 0 13.9573 0C11.9919 0 10.0264 0.356359 8.17497 1.09649C6.38047 1.80921 4.72838 2.85087 3.27569 4.2489C2.90539 4.60526 2.73449 5.04385 2.73449 5.50986C2.73449 5.78399 2.79145 6.0307 2.93388 6.27741C2.05086 7.3739 1.33876 8.60745 0.854527 9.89582C0.313327 11.3487 0 12.9112 0 14.5011V19.4627C0 20.6962 0.512716 21.8202 1.36724 22.6425C2.05086 23.3004 2.93388 23.739 3.93082 23.9035V15.0493V15.0219C2.96236 15.159 2.10783 15.5976 1.4527 16.2006V14.4737C1.4527 13.0482 1.70905 11.6502 2.22177 10.3344C2.64903 9.1831 3.27569 8.11403 4.04476 7.1546C4.24415 7.20942 4.44354 7.23683 4.64293 7.23683C5.09868 7.23683 5.55443 7.07236 5.89624 6.77083C5.92472 6.74341 5.92472 6.74341 5.9532 6.716C7.0356 5.67434 8.28891 4.87938 9.62767 4.33114C11.0234 3.78289 12.5046 3.50877 13.9858 3.50877C15.4669 3.50877 16.9481 3.78289 18.3438 4.33114C19.6826 4.85197 20.9359 5.64692 22.0183 6.716L22.0468 6.74341C22.4171 7.07236 22.8728 7.26425 23.3571 7.26425C23.5565 7.26425 23.7558 7.23683 23.9552 7.18201C24.7243 8.14144 25.3225 9.23793 25.7782 10.3618C26.2625 11.6776 26.5473 13.0756 26.5473 14.5011V16.2281C25.8637 15.625 25.0092 15.1864 24.0692 15.0493V15.0767V23.9035C25.0661 23.7664 25.9491 23.3004 26.6328 22.6425C27.4873 21.8202 28 20.7237 28 19.4627V14.5011H27.9145Z" fill="#04CDA9"/>
<path d="M6.7793 13.8981C6.09568 13.8981 5.526 14.4463 5.526 15.1042V23.7939C5.526 24.4518 6.09568 25.0001 6.7793 25.0001C7.46291 25.0001 8.03259 24.4518 8.03259 23.7939V15.1316C8.03259 14.4463 7.46291 13.8981 6.7793 13.8981Z" fill="#04CDA9"/>
</svg>
