<svg width="31" height="14" viewBox="0 0 31 14" fill="none" xmlns="http://www.w3.org/2000/svg">
<path d="M16.5308 13.6067L30.1783 3.01225C30.4942 2.76721 30.6682 2.44011 30.6682 2.09133C30.6682 1.74255 30.4942 1.41544 30.1783 1.17041L29.1735 0.3902C28.5187 -0.117486 27.4546 -0.117486 26.8008 0.3902L15.3405 9.28661L3.86741 0.380325C3.5515 0.135288 3.13038 -4.53876e-06 2.68133 -4.61277e-06C2.23178 -4.68687e-06 1.81066 0.135288 1.4945 0.380324L0.48994 1.16053C0.174035 1.40576 1.66376e-06 1.73267 1.64851e-06 2.08145C1.63326e-06 2.43023 0.174035 2.75733 0.48994 3.00237L14.1499 13.6067C14.4668 13.8523 14.8899 13.9872 15.3397 13.9864C15.7913 13.9872 16.2141 13.8523 16.5308 13.6067Z" fill="#00FBCE" fill-opacity="0.8"/>
</svg>
