<svg width="20" height="19" viewBox="0 0 20 19" fill="none" xmlns="http://www.w3.org/2000/svg">
<path d="M9.53064 15.9703C9.58731 16.0133 9.65459 16.0474 9.72863 16.0707C9.80267 16.094 9.88203 16.106 9.96218 16.106C10.0423 16.106 10.1217 16.094 10.1957 16.0707C10.2698 16.0474 10.3371 16.0133 10.3937 15.9703L12.6952 14.2226C12.8096 14.1356 12.8739 14.0178 12.8739 13.8949C12.8739 13.7719 12.8096 13.6541 12.6952 13.5672C12.5808 13.4802 12.4255 13.4314 12.2637 13.4314C12.1018 13.4314 11.9466 13.4802 11.8321 13.5672L10.5725 14.5237V9.46344C10.5725 9.34052 10.5082 9.22265 10.3937 9.13574C10.2793 9.04883 10.124 9 9.96218 9C9.80032 9 9.6451 9.04883 9.53065 9.13574C9.4162 9.22265 9.3519 9.34052 9.3519 9.46344V14.5237L8.09222 13.5672C7.97777 13.4802 7.82254 13.4314 7.66069 13.4314C7.49883 13.4314 7.34361 13.4802 7.22916 13.5672C7.11471 13.6541 7.05042 13.7719 7.05042 13.8949C7.05042 14.0178 7.11471 14.1356 7.22916 14.2226L9.53064 15.9703Z" fill="#00FBCE"/>
<path d="M15.3076 12.2308C15.144 12.2308 14.9871 12.2925 14.8715 12.4023C14.7558 12.5121 14.6908 12.6609 14.6908 12.8162V17.304H5.23356V12.8162C5.23356 12.6609 5.16857 12.5121 5.05291 12.4023C4.93724 12.2925 4.78036 12.2308 4.61678 12.2308C4.4532 12.2308 4.29632 12.2925 4.18065 12.4023C4.06498 12.5121 4 12.6609 4 12.8162V17.4991C4 17.7578 4.1083 18.006 4.30108 18.1889C4.49386 18.3719 4.75533 18.4747 5.02796 18.4747H14.8964C15.169 18.4747 15.4305 18.3719 15.6233 18.1889C15.8161 18.006 15.9244 17.7578 15.9244 17.4991V12.8162C15.9244 12.6609 15.8594 12.5121 15.7437 12.4023C15.6281 12.2925 15.4712 12.2308 15.3076 12.2308Z" fill="#00FBCE"/>
<path d="M15.0964 10.0066C14.6081 10.0066 14.2012 10.4014 14.2012 10.875V17.1316C14.2012 17.6052 14.6081 18 15.0964 18C15.5847 18 15.9916 17.6052 15.9916 17.1316V10.8948C16.012 10.4014 15.605 10.0066 15.0964 10.0066Z" fill="#00FBCE"/>
<path d="M19.939 10.4407C19.939 9.29595 19.7355 8.17096 19.3286 7.12492C18.9827 6.1973 18.4741 5.30915 17.8433 4.51969C17.9247 4.34206 17.9858 4.14469 17.9858 3.96706C17.9858 3.63154 17.8637 3.31575 17.5992 3.05918C16.5615 2.05261 15.3815 1.30262 14.0997 0.789465C12.7772 0.256576 11.3733 0 9.96948 0C8.56561 0 7.16175 0.256576 5.83927 0.789465C4.55748 1.30262 3.37742 2.05261 2.33978 3.05918C2.07528 3.31575 1.9532 3.63154 1.9532 3.96706C1.9532 4.16443 1.9939 4.34206 2.09563 4.51969C1.4649 5.30915 0.956256 6.1973 0.610376 7.12492C0.223805 8.17096 0 9.29595 0 10.4407V14.013C0 14.9012 0.366226 15.7104 0.976602 16.3025C1.4649 16.7761 2.09563 17.0919 2.80773 17.2103V10.8354V10.8157C2.11597 10.9144 1.50559 11.2301 1.03764 11.6643V10.4209C1.03764 9.39463 1.22075 8.38807 1.58698 7.44071C1.89217 6.61177 2.33978 5.84204 2.88911 5.15126C3.03154 5.19073 3.17396 5.21047 3.31638 5.21047C3.64191 5.21047 3.96745 5.09205 4.2116 4.87495C4.23194 4.85521 4.23194 4.85521 4.25229 4.83547C5.02543 4.08548 5.92065 3.51312 6.87691 3.11839C7.87385 2.72365 8.93184 2.52629 9.98983 2.52629C11.0478 2.52629 12.1058 2.72365 13.1027 3.11839C14.059 3.49338 14.9542 4.06574 15.7274 4.83547L15.7477 4.85521C16.0122 5.09205 16.3377 5.23021 16.6836 5.23021C16.826 5.23021 16.9685 5.21047 17.1109 5.171C17.6602 5.86178 18.0875 6.65124 18.413 7.46044C18.7589 8.4078 18.9624 9.41437 18.9624 10.4407V11.6841C18.4741 11.2499 17.8637 10.9341 17.1923 10.8354V10.8551V17.2103C17.9044 17.1117 18.5351 16.7761 19.0234 16.3025C19.6338 15.7104 20 14.9209 20 14.013V10.4407H19.939V10.4407Z" fill="#00FBCE"/>
<path d="M4.84199 10.0066C4.35369 10.0066 3.94678 10.4014 3.94678 10.875V17.1316C3.94678 17.6052 4.35369 18 4.84199 18C5.33028 18 5.7372 17.6052 5.7372 17.1316V10.8948C5.7372 10.4014 5.33028 10.0066 4.84199 10.0066Z" fill="#00FBCE"/>
</svg>
