<svg width="19" height="11" viewBox="0 0 19 11" fill="none" xmlns="http://www.w3.org/2000/svg">
<path d="M8.75862 0.298687L0.303534 8.63095C0.10782 8.82366 2.28848e-08 9.08092 1.96137e-08 9.35522C1.63427e-08 9.62953 0.10782 9.88679 0.303534 10.0795L0.926049 10.6931C1.33169 11.0924 1.99097 11.0924 2.39599 10.6931L9.49606 3.69632L16.604 10.7009C16.7997 10.8936 17.0606 11 17.3388 11C17.6173 11 17.8782 10.8936 18.0741 10.7009L18.6965 10.0873C18.8922 9.8944 19 9.6373 19 9.36299C19 9.08868 18.8922 8.83142 18.6965 8.63871L10.2337 0.298687C10.0373 0.105515 9.77519 -0.000584486 9.49652 2.49088e-05C9.21678 -0.000584492 8.9548 0.105515 8.75862 0.298687Z" fill="white"/>
</svg>
