<svg width="18" height="31" viewBox="0 0 18 31" fill="none" xmlns="http://www.w3.org/2000/svg">
<path d="M1.43573 16.6408L13.5711 29.5312C13.8518 29.8296 14.2262 29.9937 14.6252 29.9932C15.0242 29.9927 15.3982 29.8277 15.6781 29.5286L16.5695 28.5774C17.1495 27.9575 17.1483 26.9513 16.5667 26.3338L6.37637 15.5092L16.5516 4.64785C16.8316 4.34879 16.9859 3.95038 16.9854 3.52576C16.9848 3.10066 16.8296 2.70264 16.5489 2.40402L15.6552 1.45519C15.3743 1.15681 15.0001 0.992699 14.6012 0.993185C14.2022 0.993671 13.8282 1.15869 13.5482 1.45776L1.43299 14.3894C1.15238 14.6894 0.998539 15.0897 0.999942 15.5151C0.999577 15.942 1.15439 16.3417 1.43573 16.6408Z" fill="white" fill-opacity="0.8"/>
</svg>
