
<svg width="30" height="17" viewBox="0 0 30 17" fill="none" xmlns="http://www.w3.org/2000/svg">
<path d="M13.7454 0.95386L1.03922 13.282C0.745104 13.5671 0.586648 13.9439 0.593142 14.3429C0.599636 14.7418 0.770272 15.1133 1.07352 15.3887L2.03807 16.2656C2.66658 16.8363 3.67271 16.8199 4.28137 16.2291L14.9512 5.8769L25.9646 15.8875C26.2679 16.1629 26.6685 16.3111 27.0931 16.3042C27.5181 16.2973 27.9138 16.1361 28.2081 15.8509L29.1434 14.9431C29.4375 14.6577 29.596 14.2811 29.5895 13.8822C29.583 13.4832 29.4124 13.1118 29.1091 12.8363L15.9965 0.917217C15.6923 0.641154 15.2897 0.49336 14.8644 0.501168C14.4375 0.507232 14.0402 0.668046 13.7454 0.95386Z" fill="white" fill-opacity="0.8"/>
</svg>
